# xmcd
#
# Track frame offsets: 
#        150
#        19225
#        36687
#        57627
#        78247
#
# Disc length: 1299 seconds
#
# Revision: 0
# Processed by: cddbd v1.5.2PL0 Copyright (c) Steve Scherf et al.
# Submitted via: ExactAudioCopy v0.99pb5
#
DISCID=41051105
DTITLE=Chan Sau Man - Chan Sau Man(3 '' CD Single)
DYEAR=1989
DGENRE=Pop
TTITLE0=Dreams
TTITLE1=Shaking
TTITLE2=Sweet Like Candy (87 Sweet Mix)
TTITLE3=Romantic Footage
TTITLE4=Last Train
EXTD=
EXTT0=
EXTT1=
EXTT2=
EXTT3=
EXTT4=
PLAYORDER=
